<mxfile host="app.diagrams.net" modified="2023-05-15T01:27:26.016Z" agent="Mozilla/5.0 (Windows NT 10.0; Win64; x64) AppleWebKit/537.36 (KHTML, like Gecko) Chrome/113.0.0.0 Safari/537.36" version="21.3.0" etag="7d4ZzoEOM6kgi3cZ5YhO" type="github">
  <diagram name="PÃ¡gina-1" id="2KF_NQbhix73SUsFgjXr">
    <mxGraphModel>
      <root>
        <mxCell id="0" />
        <mxCell id="1" parent="0" />
      </root>
    </mxGraphModel>
  </diagram>
</mxfile>
